<svg xmlns="http://www.w3.org/2000/svg" viewBox="0 0 36 44"><defs><style>.cls-1{fill:#111216;}</style></defs><title>document-pdf@1x</title><g id="Layer_2" data-name="Layer 2"><g id="Web"><g id="File_Type_PDF_2x.png" data-name="File Type PDF@2x.png"><path class="cls-1" d="M11.33,24a12.77,12.77,0,0,0-2.27.17V32h1.66V29.16a4,4,0,0,0,.57,0,3.3,3.3,0,0,0,2.41-.83,2.63,2.63,0,0,0,.68-1.88,2.39,2.39,0,0,0-.79-1.83A3.38,3.38,0,0,0,11.33,24Zm0,3.81a2.4,2.4,0,0,1-.56,0V25.43a2.69,2.69,0,0,1,.69-.07c.84,0,1.31.44,1.31,1.16A1.27,1.27,0,0,1,11.28,27.82ZM23.06,32h1.68V28.81h2.66V27.35H24.74V25.54h2.85V24.07H23.06Zm-5.73-8a13.94,13.94,0,0,0-2.27.17V32a13.64,13.64,0,0,0,1.9.12,5.08,5.08,0,0,0,3.42-1,4.15,4.15,0,0,0,1.23-3.21,3.61,3.61,0,0,0-1.25-3A4.54,4.54,0,0,0,17.33,24Zm0,6.67a2.92,2.92,0,0,1-.58,0V25.46a3.29,3.29,0,0,1,.76-.07,2.2,2.2,0,0,1,2.33,2.52C19.83,29.8,18.84,30.69,17.33,30.68ZM26,0H4A4,4,0,0,0,0,4V40a4,4,0,0,0,4,4H32a4,4,0,0,0,4-4V11Zm8,40a2,2,0,0,1-2,2H4a2,2,0,0,1-2-2V4A2,2,0,0,1,4,2H22V12a2,2,0,0,0,2,2H34ZM24,12V2h1l9,10Z"/></g></g></g></svg>